<svg width="1180" height="900" viewBox="0 0 1180 900" fill="none" xmlns="http://www.w3.org/2000/svg" role="img" aria-labelledby="title desc">
  <title id="title">Brown Zone economic sandbox hero artwork</title>
  <desc id="desc">A warm amber educational finance sandbox scene with a campus gate, decision table, chart cards, and Mr.Brown learning interface.</desc>
  <defs>
    <radialGradient id="glowA" cx="0" cy="0" r="1" gradientUnits="userSpaceOnUse" gradientTransform="translate(260 210) rotate(45) scale(350)">
      <stop stop-color="#f08a38" stop-opacity=".38"/>
      <stop offset="1" stop-color="#f08a38" stop-opacity="0"/>
    </radialGradient>
    <radialGradient id="glowB" cx="0" cy="0" r="1" gradientUnits="userSpaceOnUse" gradientTransform="translate(890 140) rotate(45) scale(280)">
      <stop stop-color="#ffb967" stop-opacity=".22"/>
      <stop offset="1" stop-color="#ffb967" stop-opacity="0"/>
    </radialGradient>
    <linearGradient id="panel" x1="105" y1="93" x2="1075" y2="808" gradientUnits="userSpaceOnUse">
      <stop stop-color="#1f2638"/>
      <stop offset=".55" stop-color="#101726"/>
      <stop offset="1" stop-color="#0b1020"/>
    </linearGradient>
    <linearGradient id="paper" x1="505" y1="233" x2="680" y2="485" gradientUnits="userSpaceOnUse">
      <stop stop-color="#fff8ee"/>
      <stop offset=".64" stop-color="#efe7dc"/>
      <stop offset=".65" stop-color="#d96f1d"/>
      <stop offset="1" stop-color="#b85715"/>
    </linearGradient>
    <linearGradient id="amberLine" x1="336" y1="610" x2="844" y2="610" gradientUnits="userSpaceOnUse">
      <stop stop-color="#ffb967"/>
      <stop offset=".45" stop-color="#f08a38"/>
      <stop offset="1" stop-color="#78d6bf"/>
    </linearGradient>
    <filter id="softShadow" x="-20%" y="-20%" width="140%" height="150%" color-interpolation-filters="sRGB">
      <feDropShadow dx="0" dy="28" stdDeviation="28" flood-color="#050815" flood-opacity=".45"/>
    </filter>
    <pattern id="grid" width="56" height="56" patternUnits="userSpaceOnUse">
      <path d="M56 0H0V56" stroke="#ffffff" stroke-opacity=".055"/>
    </pattern>
  </defs>
  <rect width="1180" height="900" rx="54" fill="url(#panel)"/>
  <rect width="1180" height="900" rx="54" fill="url(#glowA)"/>
  <rect width="1180" height="900" rx="54" fill="url(#glowB)"/>
  <rect x="44" y="44" width="1092" height="812" rx="42" fill="url(#grid)" opacity=".75"/>
  <path d="M86 690C214 608 350 607 482 682C626 763 761 759 904 684C979 645 1040 636 1100 655" stroke="#ffffff" stroke-opacity=".08" stroke-width="2"/>
  <g filter="url(#softShadow)">
    <rect x="178" y="612" width="824" height="112" rx="30" fill="#0f1727" stroke="#ffffff" stroke-opacity=".12"/>
    <rect x="248" y="556" width="684" height="92" rx="28" fill="#1f2638" stroke="#ffffff" stroke-opacity=".12"/>
    <path d="M300 633C406 586 502 577 592 616C701 663 795 638 881 590" stroke="url(#amberLine)" stroke-width="7" stroke-linecap="round"/>
  </g>
  <g filter="url(#softShadow)">
    <rect x="478" y="210" width="224" height="300" rx="32" fill="url(#paper)"/>
    <rect x="505" y="244" width="142" height="11" rx="5.5" fill="#f08a38"/>
    <rect x="505" y="278" width="164" height="8" rx="4" fill="#dbe2ee"/>
    <rect x="505" y="304" width="156" height="8" rx="4" fill="#dbe2ee"/>
    <path d="M507 409C548 352 587 352 628 407C661 451 682 448 699 420" stroke="#f08a38" stroke-width="9" stroke-linecap="round"/>
    <path d="M622 210V510" stroke="#101726" stroke-opacity=".08" stroke-width="6"/>
  </g>
  <g filter="url(#softShadow)">
    <rect x="168" y="184" width="220" height="180" rx="30" fill="#ffffff" fill-opacity=".06" stroke="#ffffff" stroke-opacity=".12"/>
    <path d="M206 316H350" stroke="#ffffff" stroke-opacity=".16" stroke-width="5" stroke-linecap="round"/>
    <path d="M224 296V254M260 296V226M296 296V244M332 296V210" stroke="#ffb967" stroke-width="10" stroke-linecap="round"/>
    <text x="206" y="226" fill="#ffb967" font-size="18" font-family="Inter, Arial, sans-serif" letter-spacing="4">DECISION LAB</text>
  </g>
  <g filter="url(#softShadow)">
    <rect x="790" y="190" width="224" height="190" rx="32" fill="#ffffff" fill-opacity=".06" stroke="#ffffff" stroke-opacity=".12"/>
    <circle cx="850" cy="258" r="34" fill="#f08a38" fill-opacity=".2" stroke="#ffb967" stroke-opacity=".48"/>
    <circle cx="925" cy="293" r="46" fill="#78d6bf" fill-opacity=".14" stroke="#78d6bf" stroke-opacity=".42"/>
    <path d="M834 328C877 286 921 286 965 328" stroke="#ffffff" stroke-opacity=".42" stroke-width="7" stroke-linecap="round"/>
    <text x="822" y="228" fill="#fff8ee" font-size="17" font-family="Inter, Arial, sans-serif" letter-spacing="3">MR.BROWN</text>
  </g>
  <g filter="url(#softShadow)">
    <rect x="252" y="742" width="676" height="64" rx="28" fill="#ffffff" fill-opacity=".08" stroke="#ffffff" stroke-opacity=".12"/>
    <circle cx="302" cy="774" r="18" fill="#f08a38"/>
    <circle cx="384" cy="774" r="18" fill="#ffb967"/>
    <circle cx="466" cy="774" r="18" fill="#78d6bf"/>
    <rect x="520" y="764" width="330" height="20" rx="10" fill="#ffffff" fill-opacity=".14"/>
    <rect x="520" y="764" width="206" height="20" rx="10" fill="#f08a38"/>
  </g>
  <path d="M102 520H1078" stroke="#ffffff" stroke-opacity=".06"/>
  <text x="88" y="108" fill="#ffb967" font-size="16" font-family="JetBrains Mono, Consolas, monospace" letter-spacing="8">BROWN ZONE</text>
  <text x="88" y="150" fill="#fff8ee" font-size="42" font-weight="700" font-family="Noto Sans SC, Arial, sans-serif">AI 经济沙盘 · 课堂决策现场</text>
</svg>
